<?xml version="1.0" encoding="UTF-8"?>
<svg width="69px" height="18px" viewBox="0 0 69 18" version="1.1" xmlns="http://www.w3.org/2000/svg" xmlns:xlink="http://www.w3.org/1999/xlink">
    <!-- Generator: Sketch 45.2 (43514) - http://www.bohemiancoding.com/sketch -->
    <title>logo-clara-light</title>
    <desc>Created with Sketch.</desc>
    <defs></defs>
    <g id="Symbols" stroke="none" stroke-width="1" fill="none" fill-rule="evenodd">
        <g id="nav-bar-marketing" transform="translate(-32.000000, -23.000000)" fill="#FFFFFF">
            <g id="logo-clara-light">
                <g transform="translate(32.000000, 23.000000)">
                    <path d="M62.992475,3.26347351 L67.2374303,3.26347351 L67.2374303,3.69228729 C67.2376745,6.64886464 67.2359648,9.60519877 67.2414604,12.5615329 C67.2418268,12.8147349 67.2639315,13.073288 67.3193764,13.3196795 C67.4423566,13.8658516 67.7400982,14.0884067 68.3084696,14.0887715 C68.5265855,14.0888931 68.7447014,14.0699212 68.9989664,14.0578814 L68.9989664,16.7477575 C68.9989664,17.5568607 69.0032408,17.5909129 68.2102809,17.6913667 C67.1526753,17.8252646 66.0949476,17.8360883 65.0814292,17.4067881 C64.3248627,17.0864547 63.7963041,16.5477011 63.5171256,15.8299306 C63.0556138,16.2217735 62.637823,16.6713834 62.1345444,16.9853928 C60.9535922,17.7221352 59.6187621,17.8634516 58.2599954,17.7801455 C54.6436193,17.5583201 52.0759337,14.7706657 51.6901397,11.4120298 C51.3931309,8.82625599 52.1126935,6.59000308 54.0305501,4.77672644 C55.9148222,2.99519126 59.0700529,2.46288329 61.4298811,3.54063363 C62.0830075,3.83883312 62.6259768,4.27652478 62.992475,4.93093401 L62.992475,3.26347351 Z M59.4282465,13.9449012 C61.5767979,13.9562114 63.2621278,12.3825159 63.2501595,10.3759934 C63.2383134,8.38661849 61.5731342,6.80173444 59.4945606,6.80124799 C57.4633717,6.80076153 55.8701243,8.35487703 55.8613313,10.3451032 C55.8524161,12.3595307 57.4126897,13.9343207 59.4282465,13.9449012 Z M43.447925,17.5901247 L47.6922697,17.5901247 L47.6922697,17.1400283 C47.6922697,12.5887161 47.6922697,13.5193125 47.6925139,8.96800034 C47.692636,8.78557814 47.6871404,8.60230464 47.7009406,8.42061213 C47.7938779,7.20592353 48.2759067,6.78112304 49.5599327,6.81006736 C49.813465,6.81590487 50.0658981,6.86941538 50.3492289,6.90480529 C50.3572892,6.79936526 50.3719442,6.6969656 50.3719442,6.59480917 C50.3737761,5.58467666 50.3619299,4.57454414 50.3800045,3.56477647 C50.3852559,3.26487438 50.3125913,3.14788095 49.9926229,3.10507254 C48.8467206,2.95159466 47.7109548,2.90988079 46.5782422,3.19640525 C44.8259876,3.6398128 43.8701124,4.88040536 43.5966737,6.5449471 C43.486883,7.21297719 43.4558632,7.9001008 43.4540313,8.57858976 C43.4423073,13.2516384 43.447925,12.4427784 43.447925,17.1157054 L43.447925,17.5901247 Z M34.1619339,16.989355 C32.9796383,17.7228138 31.6445639,17.8616979 30.2857972,17.777054 C26.6911595,17.5526747 24.1088189,14.7751144 23.7272992,11.3972633 C23.4335878,8.79689572 24.1653629,6.553954 26.1043472,4.74055575 C27.979582,2.98674874 31.1451933,2.47085877 33.4805965,3.54070415 C34.1576595,3.85082188 34.6146526,4.2815815 35.0278026,4.94085532 L35.0278026,4.11436115 L35.0278026,3.25612552 L39.2756889,3.25612552 L39.2756889,3.70257344 C39.2756889,6.63470623 39.2742234,9.56659578 39.2788642,12.4988502 C39.2792305,12.7520522 39.2960838,13.0104836 39.3477429,13.2577265 C39.476463,13.8743135 39.7621142,14.092004 40.3958227,14.086653 C40.5904905,14.085072 40.7850362,14.0671946 41.0059609,14.0552764 C41.0152425,14.12107 41.0355153,14.1985386 41.0356374,14.2761288 C41.0378356,15.273735 41.0357595,16.2713412 41.0385684,17.2689474 C41.0389348,17.4366542 41.0395454,17.5641065 40.8125144,17.6029016 C39.5353274,17.820957 38.2688875,17.8993985 37.041894,17.3696445 C36.3130499,17.055027 35.8203962,16.5050849 35.5541629,15.8313389 C35.0908193,16.2233034 34.6691205,16.6747375 34.1619339,16.989355 Z M35.288296,10.4022111 C35.3157742,8.42487605 33.6101715,6.79183255 31.5248811,6.79925105 C29.488685,6.80654794 27.9047192,8.35810953 27.8994678,10.350768 C27.8943385,12.3817351 29.4596192,13.9386478 31.5109588,13.9430259 C33.6151787,13.947404 35.2603293,12.40545 35.288296,10.4022111 Z M22.5792022,13.8837818 C22.2958713,13.9190501 22.0435604,13.9726822 21.7900281,13.9783981 C20.5060021,14.0075857 20.0238512,13.5826636 19.931036,12.367975 C19.9171137,12.1864041 19.9226093,12.0031306 19.9226093,11.8207084 C19.9222429,7.26927455 19.9210217,0.143985143 19.9210217,0.143985143 L15.6766771,0.143985143 C15.6766771,0.143985143 15.6724027,7.53707034 15.6840046,12.2099973 C15.6858365,12.8886079 15.7168563,13.5756099 15.826647,14.2437616 C16.1000857,15.9083033 17.056083,17.1488959 18.8082154,17.5923035 C19.9409281,17.8788279 21.076816,17.8368708 22.2225961,17.6835146 C22.5426867,17.6407061 22.6153513,17.5237127 22.6099778,17.2239322 C22.5919032,16.2141646 22.6037494,15.2039104 22.6020396,14.1937779 C22.6017954,14.0914999 22.5873846,13.9893434 22.5792022,13.8837818 Z M11.2938223,8.08204261 C9.5041973,6.08464117 6.57734103,6.35182888 5.26925634,7.82166533 C4.02040246,9.22485687 4.03591238,11.6103311 5.36927701,13.0138875 C6.63229744,14.3433805 9.3828047,14.6841452 11.2768468,12.679082 C12.0373214,13.451336 12.8012155,14.2215225 13.5679185,15.0056947 C13.8147339,15.258167 13.7293682,15.5085719 13.6207988,15.6166874 C11.5198763,17.7085836 8.89796703,18.3747894 5.90846045,17.643398 C3.22219113,16.9860701 1.34952093,15.3432974 0.461303217,12.6997565 C-0.733571262,9.14325334 0.952857774,5.21473052 4.36662784,3.64006211 C6.78898427,2.52266535 9.24174991,2.49323457 11.6636178,3.678614 C12.548416,4.11180591 13.2897169,4.74225703 13.9016871,5.41186811 C13.0275138,6.30707464 12.160668,7.19449782 11.2938223,8.08204261 Z"></path>
                </g>
            </g>
        </g>
    </g>
</svg>